<svg width="240" height="36" version="1.1" xmlns="http://www.w3.org/2000/svg" viewBox="0 0 220 36">
<path fill-rule="evenodd" clip-rule="evenodd" d="M76.3 24.5586V28.0046C75.7438 28.4703 75.1875 28.7497 74.4459 28.7497C73.0552 28.7497 72.1281 27.6321 72.1281 26.235C72.1281 24.6517 73.3333 24.1861 74.5386 24.1861C75.2802 24.1861 75.9292 24.3723 76.3 24.5586ZM65.7311 30.7987C66.7509 32.7546 68.6051 33.8722 70.8302 33.8722C72.5917 33.8722 74.724 32.9409 76.2073 31.7301V33.6859H87.5179V19.7155C87.5179 13.1028 85.0147 8.35291 76.3 8.35291C72.0354 8.44604 69.6249 8.81859 65.7311 11.147V8.63231H54.606V24.2792C54.0497 24.838 53.308 25.3037 52.5664 25.3968C50.6195 24.9311 50.5268 22.8821 50.5268 20.8332V8.72545H39.9579V13.8479C39.1235 10.9607 37.1766 8.53918 32.8192 8.44604C29.0181 8.44604 26.9785 10.1225 25.0316 12.8234C23.7337 10.4019 21.7868 8.53918 18.1711 8.44604C15.3898 8.35291 12.9794 9.47054 11.2179 11.8921V8.63231H0V33.5928H11.2179V16.9214C11.7741 16.3626 12.5158 15.9901 13.0721 15.9901C15.1117 15.9901 15.2971 18.5047 15.2971 20.3675V33.4997H25.866V16.9214C26.4222 16.3626 27.0712 15.9901 27.8129 15.9901C29.7598 15.9901 29.8525 18.5979 29.8525 20.3675V33.4997H40.4214V28.5635C41.2558 31.4507 43.2027 33.6859 47.56 33.7791C50.9903 33.7791 53.0299 31.8232 54.9768 29.2154V33.5928H65.7311V30.7987ZM65.7311 18.691C67.0291 17.9459 69.6249 16.9214 71.85 16.9214C74.1677 16.9214 76.1146 17.8528 76.2073 20.4606C75.0948 20.0881 73.6115 19.9018 72.6844 19.9018C69.4395 19.9018 66.9364 21.2988 65.7311 23.5341V18.691ZM100.683 24.4655V18.691C101.239 18.4116 101.888 18.2253 102.351 18.2253C103.835 18.2253 104.855 19.2498 104.855 21.2988C104.947 24.1861 103.371 24.4655 100.683 24.4655ZM125.158 24.5586V28.0046C124.602 28.4703 124.046 28.7497 123.304 28.7497C121.913 28.7497 120.986 27.6321 120.986 26.235C120.986 24.6517 122.191 24.1861 123.397 24.1861C124.231 24.1861 124.88 24.3723 125.158 24.5586ZM113.847 28.0978C114.218 31.5438 116.536 33.8722 119.781 33.8722C121.542 33.8722 123.675 32.9409 125.158 31.7301V33.6859H136.469V19.7155C136.469 13.1028 133.78 8.25977 125.158 8.35291C120.893 8.44604 118.576 8.81859 114.496 11.3333V14.2205C112.457 10.2156 108.47 8.35291 104.855 8.35291C103.371 8.35291 101.888 8.72545 100.775 9.28427V1.83337H89.6502V33.5928H103.371C108.192 33.6859 111.901 31.5438 113.847 28.0978ZM115.609 18.2253C117 17.5734 118.946 16.9214 120.801 16.9214C123.118 16.9214 125.065 17.8528 125.158 20.4606C124.046 20.0881 122.562 19.9018 121.635 19.9018C119.132 19.9018 117.092 20.74 115.702 22.1371C115.702 21.7645 115.794 21.2988 115.794 20.9263C115.794 19.9949 115.794 19.0636 115.609 18.2253ZM148.243 8.63231H137.025V33.5928H148.243V16.9214C148.799 16.3626 149.541 15.9901 150.097 15.9901C152.137 15.9901 152.322 18.5047 152.322 20.3675V33.4997H162.891V18.4116C162.891 13.9411 161.871 8.53918 155.196 8.44604C152.415 8.44604 150.004 9.47054 148.243 11.8921V8.63231ZM120.986 7.049H124.602L129.794 1.83337H123.397L120.986 7.049Z" fill="#f57301"></path>
<path fill-rule="evenodd" clip-rule="evenodd" d="M168.917 33.8722C170.586 33.8722 171.698 32.6614 171.698 30.985C171.698 29.3085 170.586 28.0978 168.917 28.0978C167.341 28.0978 166.136 29.3085 166.136 30.985C166.136 32.6614 167.248 33.8722 168.917 33.8722ZM175.221 33.4997H179.671V23.0684C179.671 22.6027 179.671 22.0439 179.857 21.5782C180.32 20.2743 181.526 18.9704 183.287 18.9704C185.697 18.9704 186.625 20.9263 186.625 23.441V33.4997H191.075V22.9753C191.075 17.3871 187.923 15.3381 184.77 15.3381C181.804 15.3381 179.949 17.0146 179.115 18.4116H179.022L178.837 15.7107H174.943C175.036 17.2008 175.129 18.9704 175.129 21.0194V33.4997H175.221ZM208.689 25.8625C208.782 25.49 208.875 24.838 208.875 23.9998C208.875 20.0881 207.021 15.3381 201.273 15.3381C195.617 15.3381 192.651 19.9949 192.651 24.838C192.651 30.2399 195.988 33.7791 201.736 33.7791C203.869 33.7791 205.63 33.4997 207.021 33.034V29.6811C205.723 30.1468 204.332 30.4262 202.293 30.4262C199.511 30.4262 197.008 29.0291 196.823 25.8625H208.689ZM196.915 22.6959C197.101 20.8332 198.213 18.4116 200.995 18.4116C203.961 18.4116 204.703 21.1126 204.61 22.6959H196.915ZM211.378 8.53918V15.8038H208.875V19.1567H211.378V27.4458C211.378 29.7742 211.842 31.3575 212.769 32.382C213.603 33.3134 214.994 33.8722 216.57 33.8722C217.96 33.8722 219.166 33.6859 219.815 33.4065L219.722 29.9605C219.351 30.0536 218.702 30.1468 217.96 30.1468C216.292 30.1468 215.643 29.0291 215.643 26.887V19.0636H219.907V15.7107H215.643V8.53918H211.378Z" fill="#f57301"></path>
</svg>